<?xml version="1.0" standalone="no"?><!DOCTYPE svg PUBLIC "-//W3C//DTD SVG 1.1//EN" "http://www.w3.org/Graphics/SVG/1.1/DTD/svg11.dtd"><svg t="1771842916727" class="icon" viewBox="0 0 1126 1024" version="1.1" xmlns="http://www.w3.org/2000/svg" p-id="10545" xmlns:xlink="http://www.w3.org/1999/xlink" width="219.921875" height="200"><path d="M312.883 612.122a363.955 363.955 0 0 0 153.6 33.254c55.783 0 108.186-12.109 153.575-33.254h49.024c141.004 0 256.307 116.787 256.307 259.481v28.595c0 61.824-49.971 112.436-111.053 112.436H118.63c-61.056 0-111.052-50.612-111.052-112.436v-28.595c0-142.72 115.353-259.481 256.332-259.481h48.973zM1042.79 443.75c32.768 0.64 58.752 24.064 58.01 52.352-0.717 27.392-26.266 49.408-58.01 50.023H888.474c-32.768 0.64-59.956-21.76-60.698-50.023-0.742-28.262 25.242-51.712 58.01-52.352h157.004z m-1.33-204.8c32.767 0 59.391 30.567 59.391 68.25 0 37.709-26.624 68.275-59.392 68.275H887.142c-32.793 0-59.392-30.566-59.392-68.275 0-37.683 26.599-68.25 59.392-68.25h154.317zM466.482 11.366c144.82 0 262.247 119.552 262.247 267.008S611.25 545.382 466.483 545.382c-144.793 0-262.246-119.552-262.246-267.008S321.74 11.366 466.483 11.366z m575.744 56.91c33.101 0.64 59.341 24.063 58.573 52.351-0.717 27.392-26.522 49.408-58.573 50.048H886.374c-33.1-0.64-59.34-24.064-58.598-52.352 0.717-27.392 26.547-49.408 58.598-50.048h155.853z" p-id="10546"></path></svg>