<?xml version="1.0" standalone="no"?><!DOCTYPE svg PUBLIC "-//W3C//DTD SVG 1.1//EN" "http://www.w3.org/Graphics/SVG/1.1/DTD/svg11.dtd"><svg t="1771842882765" class="icon" viewBox="0 0 1024 1024" version="1.1" xmlns="http://www.w3.org/2000/svg" p-id="7801" xmlns:xlink="http://www.w3.org/1999/xlink" width="200" height="200"><path d="M140.896 885.6a29.088 29.088 0 0 1-29.088-29.088c0-99.616 29.12-143.424 86.624-235.424a242.848 242.848 0 0 1-33.184-67.84 340.896 340.896 0 0 1-5.44-178.688 270.848 270.848 0 0 1 84.8-138.656 350.336 350.336 0 0 1 149.408-69.984c106.912-25.536 249.28-27.52 438.752-27.52h50.24a28.8 28.8 0 0 1 21.92 10.016l0.256 0.32a29.056 29.056 0 0 1 6.4 23.68A1094.4 1094.4 0 0 1 793.92 530.56a444.192 444.192 0 0 1-165.312 171.712 337.792 337.792 0 0 1-165.376 42.336c-11.04 0-22.016-0.48-32.608-1.408a397.408 397.408 0 0 1-114.72-27.52 257.728 257.728 0 0 1-33.76-16.928 29.088 29.088 0 0 1 29.728-49.984 198.016 198.016 0 0 0 26.048 13.024 338.208 338.208 0 0 0 124.8 24.8 281.024 281.024 0 0 0 137.6-35.2c118.4-65.6 201.792-218.592 247.648-454.88h-12.8c-381.6 0.096-567.52 8.32-619.264 193.728a283.104 283.104 0 0 0 4.992 146.016 180.736 180.736 0 0 0 13.696 32.736 704.896 704.896 0 0 1 61.6-70.4 673.728 673.728 0 0 1 160.864-119.968 342.4 342.4 0 0 1 152.64-44.8 29.088 29.088 0 1 1 0 58.144 291.2 291.2 0 0 0-125.728 38.144 615.84 615.84 0 0 0-146.752 109.568c-62.464 62.432-167.296 140.256-167.296 316.8a29.088 29.088 0 0 1-29.056 29.088z" p-id="7802"></path></svg>